# xmcd
#
# Track frame offsets:
# 150
# 21497
# 46598
# 67360
# 88400
# 110288
# 129713
# 142253
# 159280
# 178294
# 197421
# 218823
# 236388
# 254015
# 271217
# 287131
# 306508
# 321260
#
# Disc length: 4565 seconds
#
# Revision: 1
# Processed by: cddbd v1.4PL0 Copyright (c) Steve Scherf et al.
# Submitted via: Easy CD Ripper v2.20
#
DISCID=1e11d312
DTITLE=蔡琴 - 蔡琴精选cd1
DYEAR=2003
DGENRE=Blues
TTITLE0=风筝 - 蔡琴
TTITLE1=幸福 - 蔡琴
TTITLE2=新月 - 蔡琴
TTITLE3=心太急 - 蔡琴
TTITLE4=爱断情伤 - 蔡琴
TTITLE5=一生都给你 - 蔡琴
TTITLE6=被遗忘的时光 - 蔡琴
TTITLE7=跟我说爱我 - 蔡琴
TTITLE8=你的眼神 - 蔡琴
TTITLE9=想你的时候 - 蔡琴
TTITLE10=抉择 - 蔡琴
TTITLE11=我的思念 - 蔡琴
TTITLE12=出塞曲 - 蔡琴
TTITLE13=渡口 - 蔡琴
TTITLE14=怎么能 - 蔡琴
TTITLE15=恰似你的温柔 - 蔡琴
TTITLE16=再爱我一次 - 蔡琴
TTITLE17=谢幕曲 - 蔡琴
EXTD=geniuscao@msn.com
EXTT0=
EXTT1=
EXTT2=
EXTT3=
EXTT4=
EXTT5=
EXTT6=
EXTT7=
EXTT8=
EXTT9=
EXTT10=
EXTT11=
EXTT12=
EXTT13=
EXTT14=geniuscao@msn.com
EXTT15=
EXTT16=
EXTT17=
PLAYORDER=
